<svg width="134" height="111" viewBox="0 0 134 111" fill="none" xmlns="http://www.w3.org/2000/svg">
<g clip-path="url(#clip0_3215_16813)">
<path d="M82.2043 47.868C80.412 44.4827 77.9626 41.5132 74.9755 39.1376C70.6742 35.8712 65.2377 33.9707 59.1441 33.9707C58.009 33.9707 55.7985 34.2083 53.9466 34.8616C53.8868 34.8616 53.4686 35.2773 53.1699 35.5742C58.6064 40.7412 62.2506 47.8086 63.5052 55.8856C64.3416 53.7476 65.4767 51.6689 68.1053 49.5903C72.6456 45.9675 82.2043 46.799 84.2952 52.8567C83.7575 51.1344 83.0406 49.4715 82.264 47.9274L82.2043 47.868Z" fill="url(#paint0_linear_3215_16813)"/>
<path d="M105.741 52.5005C103.531 39.0783 93.9127 29.3977 80.7098 27.2003C71.2707 25.6562 62.19 27.8536 55.26 33.4957C55.1405 33.5551 53.9457 34.7429 53.8262 34.8616C55.6782 34.2083 57.9483 33.9708 59.0237 33.9708C71.4499 33.9708 81.0683 41.8103 84.2943 53.1538C84.7125 54.0446 85.0112 54.9949 85.1307 55.8857C85.7281 60.1024 85.7878 62.5374 85.7281 68.0607C85.7281 70.1393 85.6086 74.653 85.6086 76.6722V100.25C85.6086 106.011 90.0295 110.881 95.8244 110.881C101.619 110.881 106.279 106.248 106.279 100.488V74.5342C106.279 72.6931 106.339 70.852 106.399 69.0109C106.578 63.9628 106.757 58.2019 105.801 52.5005H105.741Z" fill="url(#paint1_linear_3215_16813)"/>
<path d="M123.365 26.9037H110.282C108.012 26.9037 106.16 25.0626 106.16 22.8058V10.512C106.16 4.69181 101.44 0 95.5857 0C89.7311 0 85.0115 4.69181 85.0115 10.512V13.6597V16.9856C85.0115 16.9856 85.0115 17.5201 85.0115 17.6982C85.0115 18.3515 85.0115 18.9454 85.0115 19.5987C85.0115 20.6083 84.8323 20.9647 86.0271 21.2616C96.7806 23.9936 104.666 28.1509 109.625 41.3355C110.043 42.4639 110.342 43.4141 110.82 45.6116C110.939 46.2055 110.999 46.8587 111.059 47.3933C111.059 47.809 111.477 48.1059 111.895 48.1059H120.976C121.334 48.1059 121.693 48.0465 122.051 47.9872H123.545C129.399 47.9872 134.119 43.2953 134.119 37.4751C134.119 31.6549 129.399 26.9631 123.545 26.9631L123.365 26.9037Z" fill="#4C6898"/>
<path d="M63.8627 60.1625C63.8029 58.7371 63.6237 57.3712 63.4445 56.0052C62.1899 47.6906 58.3665 40.3856 52.691 35.1593C52.2131 34.6842 51.7352 34.2091 51.1975 33.7933C44.2077 28.2107 35.1271 25.9538 25.7477 27.498C17.6826 28.8046 10.9915 32.9619 6.45117 39.0196C8.42264 37.4161 17.1449 35.3969 24.7918 38.01C29.5114 39.6135 33.6335 42.6424 36.7401 46.5622C39.8466 50.4819 42.7142 55.6489 42.9532 60.6376V100.251C42.9532 105.774 47.2546 110.228 52.691 110.585C52.93 110.585 53.169 110.644 53.4079 110.644C59.2028 110.644 63.8627 106.012 63.8627 100.251V60.1625Z" fill="url(#paint2_linear_3215_16813)"/>
<path d="M31.7222 41.6914C30.8858 41.0975 29.9897 40.5036 29.0338 39.9097C28.1377 39.4345 27.3611 39.0188 26.4052 38.6031C25.987 38.4249 25.2701 38.128 24.7922 37.9498C17.1453 35.3366 8.48279 37.2965 6.45159 38.9594C3.584 42.8198 1.55279 47.4522 0.71641 52.6785C-0.239453 58.38 -0.0602288 64.0814 0.118995 69.1296C0.178737 71.03 0.238478 72.8711 0.238478 74.7122V100.666C0.238478 105.654 3.82296 109.871 8.60228 110.821H12.8439C17.6232 109.871 21.2077 105.654 21.2077 100.666V74.7122C21.2077 72.6336 21.148 70.5549 21.0882 68.4763C20.9687 63.9626 20.7895 59.6865 21.3869 56.0637C21.9246 52.8567 23.7169 48.8182 29.2131 47.9273C32.7975 47.3334 35.7846 47.9867 38.1145 49.8872C38.9509 50.5999 39.847 51.4313 40.5042 52.3816C40.5042 52.3816 40.5042 52.441 40.5639 52.5003C38.8912 49.2339 36.0833 44.7203 31.7222 41.6914Z" fill="url(#paint3_linear_3215_16813)"/>
</g>
<defs>
<linearGradient id="paint0_linear_3215_16813" x1="60.2792" y1="61.112" x2="70.5165" y2="40.0995" gradientUnits="userSpaceOnUse">
<stop stop-color="#ACDBCA"/>
<stop offset="0.44" stop-color="#6FC5A6"/>
<stop offset="1" stop-color="#51917B"/>
</linearGradient>
<linearGradient id="paint1_linear_3215_16813" x1="80.1124" y1="31.2982" x2="80.1124" y2="104.348" gradientUnits="userSpaceOnUse">
<stop stop-color="#ACDBCA"/>
<stop offset="0.44" stop-color="#6FC5A6"/>
<stop offset="1" stop-color="#51917B"/>
</linearGradient>
<linearGradient id="paint2_linear_3215_16813" x1="35.1868" y1="27.0229" x2="35.1868" y2="107.14" gradientUnits="userSpaceOnUse">
<stop stop-color="#ACDBCA"/>
<stop offset="0.44" stop-color="#6FC5A6"/>
<stop offset="1" stop-color="#51917B"/>
</linearGradient>
<linearGradient id="paint3_linear_3215_16813" x1="20.2519" y1="112.306" x2="20.2519" y2="41.5726" gradientUnits="userSpaceOnUse">
<stop stop-color="#ACDBCA"/>
<stop offset="0.44" stop-color="#6FC5A6"/>
<stop offset="1" stop-color="#51917B"/>
</linearGradient>
<clipPath id="clip0_3215_16813">
<rect width="134" height="111" fill="white"/>
</clipPath>
</defs>
</svg>
