<svg width="138" height="115" viewBox="0 0 138 115" fill="none" xmlns="http://www.w3.org/2000/svg">
<g clip-path="url(#clip0_3215_16199)">
<mask id="mask0_3215_16199" style="mask-type:luminance" maskUnits="userSpaceOnUse" x="0" y="38" width="42" height="77">
<path d="M30.9259 41.7461C30.0963 41.2366 29.2378 40.7745 28.3483 40.362C27.4608 39.9494 26.5445 39.5863 25.6034 39.2749C24.976 39.0686 24.3383 38.885 23.6923 38.7261C23.3683 38.6478 23.0422 38.5735 22.7141 38.5075C21.0713 38.1754 19.3728 38 17.633 38C16.7167 38 15.8107 38.0495 14.9212 38.1444C13.5839 38.2868 12.2796 38.5343 11.0124 38.8747C10.1683 39.1016 9.34073 39.3718 8.53378 39.6812C8.12928 39.8359 7.73097 40.001 7.33678 40.1742C5.57637 42.596 4.12965 45.2983 3.02139 48.2626C1.72327 51.7363 0.833772 55.5422 0.37561 59.5771C0.125891 61.774 0 64.0761 0 66.4174V103.711C0 109.747 4.89532 114.64 10.934 114.64C16.9726 114.64 21.8679 109.747 21.8679 103.711V66.4174C21.8679 64.8971 21.9484 63.4243 22.1053 62.0422C22.3612 59.7772 22.8338 57.7164 23.5087 55.9115C24.1505 54.1932 24.9967 52.8441 26.0905 51.7962L26.3856 51.5362C26.6436 51.3093 26.8438 51.1422 27.0006 51.0267C28.3668 50.0201 30.249 49.5312 32.7545 49.5312C35.2599 49.5312 37.1421 50.0201 38.5083 51.0267C39.8807 52.0375 40.9002 53.3495 41.6804 55.1194C40.3884 51.3836 38.2483 48.0439 35.4931 45.3272C34.8038 44.6485 34.0773 44.007 33.3137 43.4108C32.5522 42.8126 31.7535 42.2577 30.9259 41.7482V41.7461Z" fill="#EEEEEE"/>
</mask>
<g mask="url(#mask0_3215_16199)">
<path d="M0 94.2402L27.6115 114.64H0V94.2402Z" fill="#EEEEEE"/>
<path d="M0 93.6777L28.3751 114.64H27.6115L0 94.2408V93.6777Z" fill="#EEEEEE"/>
<path d="M0 93.1143L29.1366 114.64H28.3751L0 93.6774V93.1143Z" fill="#EEEEEE"/>
<path d="M0 92.5508L29.8982 114.64H29.1366L0 93.114V92.5508Z" fill="#EEEEEE"/>
<path d="M0 91.9883L30.6411 114.626L30.6287 114.64H29.8982L0 92.5515V91.9883Z" fill="#EEEEEE"/>
<path d="M0 91.4248L30.9094 114.261L30.6411 114.626L0 91.988V91.4248Z" fill="#EEEEEE"/>
<path d="M0 90.8613L31.1798 113.897L30.9094 114.26L0 91.4244V90.8613Z" fill="#EEEEEE"/>
<path d="M0 90.2988L31.4481 113.533L31.1798 113.898L0 90.8619V90.2988Z" fill="#EEEEEE"/>
<path d="M0 89.7354L31.7184 113.167L31.4481 113.532L0 90.2984V89.7354Z" fill="#EEEEEE"/>
<path d="M0 89.1719L31.9867 112.804L31.7184 113.167L0 89.7351V89.1719Z" fill="#EEEEEE"/>
<path d="M0 88.6094L32.2571 112.439L31.9867 112.804L0 89.1726V88.6094Z" fill="#EEEEEE"/>
<path d="M0 88.0459L32.5254 112.076L32.2571 112.439L0 88.6091V88.0459Z" fill="#EEEEEE"/>
<path d="M0 87.4824L32.7957 111.711L32.5254 112.076L0 88.0455V87.4824Z" fill="#EEEEEE"/>
<path d="M0 86.9199L33.064 111.348L32.7957 111.711L0 87.483V86.9199Z" fill="#EEEEEE"/>
<path d="M0 86.3564L33.3344 110.983L33.064 111.348L0 86.9195V86.3564Z" fill="#EEEEEE"/>
<path d="M0 85.793L33.6027 110.617L33.3344 110.982L0 86.3561V85.793Z" fill="#EEEEEE"/>
<path d="M0 85.2305L33.873 110.255L33.6027 110.618L0 85.7937V85.2305Z" fill="#EEEEEE"/>
<path d="M0 84.667L34.1413 109.889L33.873 110.255L0 85.2302V84.667Z" fill="#EEEEEE"/>
<path d="M0 84.1035L34.4117 109.526L34.1413 109.889L0 84.6666V84.1035Z" fill="#EEEEEE"/>
<path d="M0 83.541L34.68 109.162L34.4117 109.527L0 84.1041V83.541Z" fill="#EEEEEE"/>
<path d="M0 82.9775L34.9503 108.798L34.68 109.161L0 83.5406V82.9775Z" fill="#EEEEEE"/>
<path d="M0 82.4121L35.2186 108.433L34.9503 108.798L0 82.9774V82.4121Z" fill="#EEEEEE"/>
<path d="M0 81.8486L35.489 108.067L35.2186 108.433L0 82.4117V81.8486Z" fill="#EEEEEE"/>
<path d="M0 81.2861L35.7573 107.705L35.489 108.068L0 81.8492V81.2861Z" fill="#EEEEEE"/>
<path d="M0 80.7227L36.0276 107.34L35.7573 107.705L0 81.2858V80.7227Z" fill="#EEEEEE"/>
<path d="M0 80.1592L36.2959 106.976L36.0276 107.339L0 80.7224V80.1592Z" fill="#EEEEEE"/>
<path d="M0 79.5967L36.5663 106.612L36.2959 106.977L0 80.1599V79.5967Z" fill="#EEEEEE"/>
<path d="M0 79.0332L36.8346 106.248L36.5663 106.611L0 79.5964V79.0332Z" fill="#EEEEEE"/>
<path d="M0 78.4697L37.1049 105.883L36.8346 106.248L0 79.0328V78.4697Z" fill="#EEEEEE"/>
<path d="M0 77.9072L37.3732 105.518L37.1049 105.883L0 78.4703V77.9072Z" fill="#EEEEEE"/>
<path d="M0 77.3438L37.6436 105.155L37.3732 105.518L0 77.9068V77.3438Z" fill="#EEEEEE"/>
<path d="M0 76.7803L37.9119 104.79L37.6436 105.155L0 77.3435V76.7803Z" fill="#EEEEEE"/>
<path d="M0 76.2178L38.1822 104.427L37.9119 104.79L0 76.781V76.2178Z" fill="#EEEEEE"/>
<path d="M0 75.6543L38.4505 104.062L38.1822 104.427L0 76.2175V75.6543Z" fill="#EEEEEE"/>
<path d="M0 75.0908L38.7209 103.698L38.4505 104.061L0 75.6539V75.0908Z" fill="#EEEEEE"/>
<path d="M0 74.5283L38.9892 103.334L38.7209 103.699L0 75.0914V74.5283Z" fill="#EEEEEE"/>
<path d="M0 73.9648L39.2595 102.968L38.9892 103.334L0 74.5279V73.9648Z" fill="#EEEEEE"/>
<path d="M0 73.4014L39.5278 102.605L39.2595 102.968L0 73.9645V73.4014Z" fill="#EEEEEE"/>
<path d="M0 72.8389L39.7982 102.241L39.5278 102.606L0 73.4021V72.8389Z" fill="#EEEEEE"/>
<path d="M0 72.2754L40.0665 101.877L39.7982 102.24L0 72.8386V72.2754Z" fill="#EEEEEE"/>
<path d="M0 71.7129L40.3368 101.513L40.0665 101.878L0 72.2761V71.7129Z" fill="#EEEEEE"/>
<path d="M0 71.1494L40.6072 101.149L40.3368 101.512L0 71.7125V71.1494Z" fill="#EEEEEE"/>
<path d="M0 70.5859L40.8755 100.784L40.6072 101.149L0 71.149V70.5859Z" fill="#EEEEEE"/>
<path d="M0 70.0234L41.1458 100.419L40.8755 100.785L0 70.5865V70.0234Z" fill="#EEEEEE"/>
<path d="M0 69.46L41.4141 100.056L41.1458 100.419L0 70.0231V69.46Z" fill="#EEEEEE"/>
<path d="M0 68.8965L41.6783 99.6877V99.6967L41.4141 100.056L0 69.4597V68.8965Z" fill="#EEEEEE"/>
<path d="M0 68.334L41.6783 99.1257V99.6887L0 68.8972V68.334Z" fill="#EEEEEE"/>
<path d="M0 67.7705L41.6783 98.5622V99.1254L0 68.3337V67.7705Z" fill="#EEEEEE"/>
<path d="M0 67.207L41.6783 97.9986V98.5618L0 67.7701V67.207Z" fill="#EEEEEE"/>
<path d="M0 66.6445L41.6783 97.4361V97.9993L0 67.2076V66.6445Z" fill="#EEEEEE"/>
<path d="M0 66.0811L41.6783 96.8728V97.4359L0 66.6442V66.0811Z" fill="#EEEEEE"/>
<path d="M0 65.5176L41.6783 96.3093V96.8724L0 66.0808V65.5176Z" fill="#EEEEEE"/>
<path d="M0 64.9521L41.6783 95.7458V96.3091L0 65.5173V64.9521Z" fill="#EEEEEE"/>
<path d="M0 64.3896L41.6783 95.1814V95.7466L0 64.9528V64.3896Z" fill="#EEEEEE"/>
<path d="M0 63.8262L41.6783 94.6179V95.181L0 64.3894V63.8262Z" fill="#EEEEEE"/>
<path d="M0 63.2627L41.6783 94.0544V94.6176L0 63.8259V63.2627Z" fill="#EEEEEE"/>
<path d="M0 62.7002L41.6783 93.4919V94.0551L0 63.2634V62.7002Z" fill="#EEEEEE"/>
<path d="M0 62.1367L41.6783 92.9283V93.4915L0 62.6998V62.1367Z" fill="#EEEEEE"/>
<path d="M0 61.5732L41.6783 92.3648V92.928L0 62.1363V61.5732Z" fill="#EEEEEE"/>
<path d="M0 61.0107L41.6783 91.8023V92.3655L0 61.5738V61.0107Z" fill="#EEEEEE"/>
<path d="M0 60.4473L41.6783 91.239V91.8021L0 61.0105V60.4473Z" fill="#EEEEEE"/>
<path d="M0 59.8838L41.6783 90.6755V91.2386L0 60.447V59.8838Z" fill="#EEEEEE"/>
<path d="M0 59.166L41.6783 89.9576V90.6755L0 59.8838V59.166Z" fill="#EEEEEE"/>
<path d="M0 58.4482L41.6783 89.2399V89.9577L0 59.166V58.4482Z" fill="#EEEEEE"/>
<path d="M0 57.7305L41.6783 88.5222V89.24L0 58.4484V57.7305Z" fill="#EEEEEE"/>
<path d="M0 57.0146L41.6783 87.8064V88.5221L0 57.7304V57.0146Z" fill="#EEEEEE"/>
<path d="M0 56.2969L41.6783 87.0886V87.8064L0 57.0148V56.2969Z" fill="#EEEEEE"/>
<path d="M0 55.5791L41.6783 86.3708V87.0887L0 56.297V55.5791Z" fill="#EEEEEE"/>
<path d="M0 54.8613L41.6783 85.6529V86.3708L0 55.5791V54.8613Z" fill="#EEEEEE"/>
<path d="M0 54.1436L41.6783 84.9353V85.6531L0 54.8615V54.1436Z" fill="#EEEEEE"/>
<path d="M0 53.4258L41.6783 84.2175V84.9354L0 54.1437V53.4258Z" fill="#EEEEEE"/>
<path d="M0 52.708L41.6783 83.4997V84.2176L0 53.4259V52.708Z" fill="#EEEEEE"/>
<path d="M0 51.9902L41.6783 82.7818V83.4997L0 52.708V51.9902Z" fill="#EEEEEE"/>
<path d="M0 51.2715L41.6783 82.0632V82.7811L0 51.9894V51.2715Z" fill="#EEEEEE"/>
<path d="M0 50.5537L41.6783 81.3454V82.0633L0 51.2716V50.5537Z" fill="#EEEEEE"/>
<path d="M0 49.8359L41.6783 80.6275V81.3454L0 50.5537V49.8359Z" fill="#EEEEEE"/>
<path d="M0 49.1201L41.6783 79.9117V80.6275L0 49.8359V49.1201Z" fill="#EEEEEE"/>
<path d="M0 48.4023L41.6783 79.194V79.9118L0 49.1201V48.4023Z" fill="#EEEEEE"/>
<path d="M0 47.6846L41.6783 78.4763V79.1941L0 48.4025V47.6846Z" fill="#EEEEEE"/>
<path d="M0 46.9668L41.6783 77.7585V78.4764L0 47.6847V46.9668Z" fill="#EEEEEE"/>
<path d="M0 46.249L41.6783 77.0406V77.7585L0 46.9668V46.249Z" fill="#EEEEEE"/>
<path d="M0 45.5312L41.6783 76.323V77.0407L0 46.2491V45.5312Z" fill="#EEEEEE"/>
<path d="M0 44.8135L41.6783 75.6052V76.3231L0 45.5314V44.8135Z" fill="#EEEEEE"/>
<path d="M0 44.0957L41.6783 74.8874V75.6053L0 44.8136V44.0957Z" fill="#EEEEEE"/>
<path d="M0 43.3779L41.6783 74.1695V74.8874L0 44.0957V43.3779Z" fill="#EEEEEE"/>
<path d="M0 42.6602L41.6783 73.4519V74.1697L0 43.3781V42.6602Z" fill="#EEEEEE"/>
<path d="M0 41.9414L41.6783 72.7331V73.451L0 42.6593V41.9414Z" fill="#EEEEEE"/>
<path d="M0 41.2256L41.6783 72.0173V72.7331L0 41.9414V41.2256Z" fill="#EEEEEE"/>
<path d="M0 40.5078L41.6783 71.2995V72.0174L0 41.2257V40.5078Z" fill="#EEEEEE"/>
<path d="M0 39.79L41.6783 70.5816V71.2995L0 40.5078V39.79Z" fill="#EEEEEE"/>
<path d="M0 39.0723L41.6783 69.864V70.5818L0 39.7902V39.0723Z" fill="#EEEEEE"/>
<path d="M0 38.3545L41.6783 69.1462V69.8641L0 39.0724V38.3545Z" fill="#EEEEEE"/>
<path d="M0.49531 38.002L41.6783 68.4285V69.1464L0 38.3547V38.002H0.49531Z" fill="#EEEEEE"/>
<path d="M1.46608 38.002L41.6791 67.7107V68.4285L0.496094 38.002H1.46608Z" fill="#EEEEEE"/>
<path d="M2.43689 38.002L41.6778 66.9928V67.7107L1.46484 38.002H2.43689Z" fill="#EEEEEE"/>
<path d="M3.40955 38.002L41.6785 66.275V66.9928L2.4375 38.002H3.40955Z" fill="#EEEEEE"/>
<path d="M4.38014 38.002L41.6791 65.5571V66.275L3.41016 38.002H4.38014Z" fill="#EEEEEE"/>
<path d="M5.35095 38.002L41.6778 64.8392V65.5571L4.37891 38.002H5.35095Z" fill="#EEEEEE"/>
<path d="M6.32361 38.002L41.6784 64.1234V64.8392L5.35156 38.002H6.32361Z" fill="#EEEEEE"/>
<path d="M7.2942 38.002L41.6791 63.4056V64.1234L6.32422 38.002H7.2942Z" fill="#EEEEEE"/>
<path d="M8.26501 38.002L41.6778 62.6877V63.4056L7.29297 38.002H8.26501Z" fill="#EEEEEE"/>
<path d="M9.23767 38.002L41.6784 61.9699V62.6877L8.26562 38.002H9.23767Z" fill="#EEEEEE"/>
<path d="M10.2103 38.002L41.679 61.252V61.9699L9.23828 38.002H10.2103Z" fill="#EEEEEE"/>
<path d="M11.179 38.002L41.6777 60.5341V61.252L10.209 38.002H11.179Z" fill="#EEEEEE"/>
<path d="M12.1517 38.002L41.6784 59.8163V60.5341L11.1797 38.002H12.1517Z" fill="#EEEEEE"/>
<path d="M13.1244 38.002L41.679 59.0984V59.8163L12.1523 38.002H13.1244Z" fill="#EEEEEE"/>
<path d="M14.093 38.002L41.6777 58.3806V59.0984L13.123 38.002H14.093Z" fill="#EEEEEE"/>
<path d="M15.0658 38.002L41.6783 57.6627V58.3806L14.0938 38.002H15.0658Z" fill="#EEEEEE"/>
<path d="M16.0385 38.002L41.679 56.9448V57.6627L15.0664 38.002H16.0385Z" fill="#EEEEEE"/>
<path d="M17.0071 38.002L41.6777 56.227V56.9448L16.0371 38.002H17.0071Z" fill="#EEEEEE"/>
<path d="M17.9799 38.002L41.6784 55.5112V56.227L17.0078 38.002H17.9799Z" fill="#EEEEEE"/>
<path d="M18.9525 38.002L41.679 54.7933V55.5112L17.9805 38.002H18.9525Z" fill="#EEEEEE"/>
<path d="M19.9232 38.002L41.6777 54.0755V54.7933L18.9512 38.002H19.9232Z" fill="#EEEEEE"/>
<path d="M20.8938 38.002L41.6783 53.3576V54.0755L19.9238 38.002H20.8938Z" fill="#EEEEEE"/>
<path d="M21.8666 38.002L41.679 52.6397V53.3576L20.8945 38.002H21.8666Z" fill="#EEEEEE"/>
<path d="M22.8373 38.002L41.6776 51.9219V52.6397L21.8652 38.002H22.8373Z" fill="#EEEEEE"/>
<path d="M23.8079 38.002L41.6783 51.204V51.9219L22.8379 38.002H23.8079Z" fill="#EEEEEE"/>
<path d="M24.7806 38.002L41.679 50.4862V51.204L23.8086 38.002H24.7806Z" fill="#EEEEEE"/>
<path d="M25.7513 38.002L41.6776 49.7683V50.4862L24.7793 38.002H25.7513Z" fill="#EEEEEE"/>
<path d="M26.7219 38.002L41.6782 49.0504V49.7683L25.752 38.002H26.7219Z" fill="#EEEEEE"/>
<path d="M27.6947 38.002L41.679 48.3326V49.0504L26.7227 38.002H27.6947Z" fill="#EEEEEE"/>
<path d="M28.6654 38.002L41.6776 47.6168V48.3326L27.6934 38.002H28.6654Z" fill="#EEEEEE"/>
<path d="M29.6381 38.002L41.6782 46.8989V47.6168L28.666 38.002H29.6381Z" fill="#EEEEEE"/>
<path d="M41.6788 46.8989L29.6387 38.002H41.6788V46.8989Z" fill="#EEEEEE"/>
</g>
<mask id="mask1_3215_16199" style="mask-type:luminance" maskUnits="userSpaceOnUse" x="0" y="0" width="138" height="115">
<path d="M137.383 0H0V115H137.383V0Z" fill="white"/>
</mask>
<g mask="url(#mask1_3215_16199)">
<path d="M83.7204 51.6531C83.4934 51.1291 83.4356 50.9166 83.1838 50.4401C78.4164 41.9207 69.311 36.1572 58.8496 36.1572C57.2832 36.1572 55.7539 36.2995 54.2598 36.5491C54.9965 37.267 55.6982 38.0199 56.3628 38.8079C57.6155 40.2911 58.7402 41.8918 59.7267 43.6184C60.3438 44.7014 60.9093 45.8297 61.4191 47.0055C61.675 47.5934 61.9164 48.1916 62.1434 48.8022C63.2228 51.6902 64.3744 57.8745 64.8821 61.1626C64.9234 58.3469 65.1339 57.0659 65.363 56.0386C66.5476 50.7351 71.8206 47.9503 77.1699 48.8579C79.5887 49.2684 83.4418 50.5969 84.2838 53.2682C84.0795 52.6226 83.933 52.1378 83.7225 51.6531H83.7204Z" fill="#EEEEEE"/>
<path d="M35.3141 45.6459C34.6248 44.9672 33.8984 44.3257 33.1348 43.7295C33.8963 44.3278 34.6248 44.9672 35.3141 45.6459Z" fill="white"/>
<path d="M30.7461 42.0674C31.5757 42.5769 32.3723 43.1318 33.1339 43.7301C32.3723 43.1318 31.5737 42.5769 30.7461 42.0674Z" fill="white"/>
<path d="M23.5117 39.0488C24.1597 39.2076 24.7974 39.3891 25.4228 39.5975C24.7954 39.3912 24.1577 39.2076 23.5117 39.0488Z" fill="white"/>
<mask id="mask2_3215_16199" style="mask-type:luminance" maskUnits="userSpaceOnUse" x="23" y="39" width="3" height="1">
<path d="M23.5117 39.0488C24.1597 39.2076 24.7974 39.3891 25.4228 39.5975C24.7954 39.3912 24.1577 39.2076 23.5117 39.0488Z" fill="white"/>
</mask>
<g mask="url(#mask2_3215_16199)">
<path d="M23.5117 39.457L23.6995 39.5952H23.5117V39.457Z" fill="white"/>
<path d="M23.7903 39.0488L24.5312 39.5954H23.6995L23.5117 39.4572V39.0488H23.7903Z" fill="white"/>
<path d="M24.6227 39.0488L25.3636 39.5954H24.5319L23.791 39.0488H24.6227Z" fill="white"/>
<path d="M25.362 39.5954L24.6211 39.0488H25.4239V39.5954H25.362Z" fill="white"/>
</g>
<path d="M23.5117 39.0488C24.1597 39.2076 24.7974 39.3891 25.4228 39.5975C24.7954 39.3912 24.1577 39.2076 23.5117 39.0488Z" fill="white"/>
<mask id="mask3_3215_16199" style="mask-type:luminance" maskUnits="userSpaceOnUse" x="23" y="39" width="3" height="1">
<path d="M23.5117 39.0488C24.1597 39.2076 24.7974 39.3891 25.4228 39.5975C24.7954 39.3912 24.1577 39.2076 23.5117 39.0488Z" fill="white"/>
</mask>
<g mask="url(#mask3_3215_16199)">
<path d="M23.7759 39.0488H23.5117V39.5975H23.7759V39.0488Z" fill="white"/>
<path d="M24.3655 39.0488H23.7773V39.5975H24.3655V39.0488Z" fill="white"/>
<path d="M24.9534 39.0488H24.3652V39.5975H24.9534V39.0488Z" fill="white"/>
<path d="M25.4256 39.0488H24.9551V39.5975H25.4256V39.0488Z" fill="white"/>
</g>
<path d="M25.4258 39.5957C26.3669 39.9051 27.2811 40.2681 28.1706 40.6828C27.2832 40.2702 26.3669 39.9071 25.4258 39.5957Z" fill="white"/>
<mask id="mask4_3215_16199" style="mask-type:luminance" maskUnits="userSpaceOnUse" x="25" y="39" width="4" height="2">
<path d="M25.4258 39.5957C26.3669 39.9051 27.2811 40.2681 28.1706 40.6828C27.2832 40.2702 26.3669 39.9071 25.4258 39.5957Z" fill="white"/>
</mask>
<g mask="url(#mask4_3215_16199)">
<path d="M25.4258 40.2559L26.0036 40.6829H25.4258V40.2559Z" fill="white"/>
<path d="M25.4258 39.6406L26.8333 40.6823H26.0036L25.4258 40.2553V39.6406Z" fill="white"/>
<path d="M26.1956 39.5957L27.665 40.6828H26.8333L25.4258 39.641V39.5957H26.1956Z" fill="white"/>
<path d="M27.0249 39.5957L28.1683 40.4414V40.6828H27.6647L26.1953 39.5957H27.0249Z" fill="white"/>
<path d="M27.8571 39.5957L28.1687 39.8267V40.4414L27.0254 39.5957H27.8571Z" fill="white"/>
<path d="M28.169 39.8267L27.8574 39.5957H28.169V39.8267Z" fill="white"/>
</g>
<path d="M25.4258 39.5957C26.3669 39.9051 27.2811 40.2681 28.1706 40.6828C27.2832 40.2702 26.3669 39.9071 25.4258 39.5957Z" fill="white"/>
<mask id="mask5_3215_16199" style="mask-type:luminance" maskUnits="userSpaceOnUse" x="25" y="39" width="4" height="2">
<path d="M25.4258 39.5957C26.3669 39.9051 27.2811 40.2681 28.1706 40.6828C27.2832 40.2702 26.3669 39.9071 25.4258 39.5957Z" fill="white"/>
</mask>
<g mask="url(#mask5_3215_16199)">
<path d="M25.5455 39.5957H25.4258V40.6828H25.5455V39.5957Z" fill="white"/>
<path d="M26.1311 39.5957H25.543V40.6828H26.1311V39.5957Z" fill="white"/>
<path d="M26.721 39.5957H26.1328V40.6828H26.721V39.5957Z" fill="white"/>
<path d="M27.3109 39.5957H26.7227V40.6828H27.3109V39.5957Z" fill="white"/>
<path d="M27.8987 39.5957H27.3105V40.6828H27.8987V39.5957Z" fill="white"/>
<path d="M28.1688 39.5957H27.8984V40.6828H28.1688V39.5957Z" fill="white"/>
</g>
<path d="M22.5351 38.8306C20.8923 38.4985 19.1938 38.3232 17.454 38.3232C16.5377 38.3232 15.6317 38.3727 14.7422 38.4676C15.6337 38.3727 16.5377 38.3232 17.454 38.3232C19.1938 38.3232 20.8943 38.4985 22.5351 38.8306Z" fill="white"/>
<mask id="mask6_3215_16199" style="mask-type:luminance" maskUnits="userSpaceOnUse" x="14" y="38" width="9" height="1">
<path d="M22.5351 38.8306C20.8923 38.4985 19.1938 38.3232 17.454 38.3232C16.5377 38.3232 15.6317 38.3727 14.7422 38.4676C15.6337 38.3727 16.5377 38.3232 17.454 38.3232C19.1938 38.3232 20.8943 38.4985 22.5351 38.8306Z" fill="white"/>
</mask>
<g mask="url(#mask6_3215_16199)">
<path d="M14.7422 38.5049L15.1838 38.8309H14.7422V38.5049Z" fill="white"/>
<path d="M15.3283 38.3232L16.0155 38.8306H15.1838L14.7422 38.5047V38.3232H15.3283Z" fill="white"/>
<path d="M16.1598 38.3232L16.8471 38.8306H16.0154L15.3281 38.3232H16.1598Z" fill="white"/>
<path d="M16.992 38.3232L17.6771 38.8306H16.8475L16.1602 38.3232H16.992Z" fill="white"/>
<path d="M17.8218 38.3232L18.5091 38.8306H17.6774L16.9922 38.3232H17.8218Z" fill="white"/>
<path d="M18.654 38.3232L19.3412 38.8306H18.5095L17.8223 38.3232H18.654Z" fill="white"/>
<path d="M19.484 38.3232L20.1713 38.8306H19.3396L18.6523 38.3232H19.484Z" fill="white"/>
<path d="M20.314 38.3232L21.0012 38.8306H20.1716L19.4844 38.3232H20.314Z" fill="white"/>
<path d="M21.1462 38.3232L21.8335 38.8306H21.0018L20.3145 38.3232H21.1462Z" fill="white"/>
<path d="M21.9782 38.3232L22.5354 38.7358V38.8306H21.8337L21.1465 38.3232H21.9782Z" fill="white"/>
<path d="M22.5357 38.7358L21.9785 38.3232H22.5357V38.7358Z" fill="white"/>
</g>
<path d="M22.5351 38.8306C20.8923 38.4985 19.1938 38.3232 17.454 38.3232C16.5377 38.3232 15.6317 38.3727 14.7422 38.4676C15.6337 38.3727 16.5377 38.3232 17.454 38.3232C19.1938 38.3232 20.8943 38.4985 22.5351 38.8306Z" fill="white"/>
<mask id="mask7_3215_16199" style="mask-type:luminance" maskUnits="userSpaceOnUse" x="14" y="38" width="9" height="1">
<path d="M22.5351 38.8306C20.8923 38.4985 19.1938 38.3232 17.454 38.3232C16.5377 38.3232 15.6317 38.3727 14.7422 38.4676C15.6337 38.3727 16.5377 38.3232 17.454 38.3232C19.1938 38.3232 20.8943 38.4985 22.5351 38.8306Z" fill="white"/>
</mask>
<g mask="url(#mask7_3215_16199)">
<path d="M14.9486 38.3232H14.7422V38.8306H14.9486V38.3232Z" fill="white"/>
<path d="M15.5374 38.3232H14.9492V38.8306H15.5374V38.3232Z" fill="white"/>
<path d="M16.1253 38.3232H15.5371V38.8306H16.1253V38.3232Z" fill="white"/>
<path d="M16.7132 38.3232H16.125V38.8306H16.7132V38.3232Z" fill="white"/>
<path d="M17.303 38.3232H16.7148V38.8306H17.303V38.3232Z" fill="white"/>
<path d="M17.8909 38.3232H17.3027V38.8306H17.8909V38.3232Z" fill="white"/>
<path d="M18.4788 38.3232H17.8906V38.8306H18.4788V38.3232Z" fill="white"/>
<path d="M19.0686 38.3232H18.4805V38.8306H19.0686V38.3232Z" fill="white"/>
<path d="M19.6585 38.3232H19.0703V38.8306H19.6585V38.3232Z" fill="white"/>
<path d="M20.2464 38.3232H19.6582V38.8306H20.2464V38.3232Z" fill="white"/>
<path d="M20.8343 38.3232H20.2461V38.8306H20.8343V38.3232Z" fill="white"/>
<path d="M21.4222 38.3232H20.834V38.8306H21.4222V38.3232Z" fill="white"/>
<path d="M22.012 38.3232H21.4238V38.8306H22.012V38.3232Z" fill="white"/>
<path d="M22.5379 38.3232H22.0137V38.8306H22.5379V38.3232Z" fill="white"/>
</g>
<path d="M54.4019 36.3716C54.4019 36.3716 54.3872 36.3569 54.3809 36.3506C54.3809 36.3506 54.3956 36.3653 54.4019 36.3716Z" fill="white"/>
<mask id="mask8_3215_16199" style="mask-type:luminance" maskUnits="userSpaceOnUse" x="54" y="36" width="1" height="1">
<path d="M54.4019 36.3716C54.4019 36.3716 54.3872 36.3569 54.3809 36.3506C54.3809 36.3506 54.3956 36.3653 54.4019 36.3716Z" fill="white"/>
</mask>
<g mask="url(#mask8_3215_16199)">
<path d="M54.4019 36.3486H54.3809V36.3696H54.4019V36.3486Z" fill="white"/>
</g>
<path d="M54.4019 36.3716C54.4019 36.3716 54.3872 36.3569 54.3809 36.3506C54.3809 36.3506 54.3956 36.3653 54.4019 36.3716Z" fill="white"/>
<mask id="mask9_3215_16199" style="mask-type:luminance" maskUnits="userSpaceOnUse" x="54" y="36" width="1" height="1">
<path d="M54.4019 36.3716C54.4019 36.3716 54.3872 36.3569 54.3809 36.3506C54.3809 36.3506 54.3956 36.3653 54.4019 36.3716Z" fill="white"/>
</mask>
<g mask="url(#mask9_3215_16199)">
<path d="M54.383 36.3486H54.3809V36.3696H54.383V36.3486Z" fill="white"/>
<path d="M54.4017 36.3486H54.3828V36.3696H54.4017V36.3486Z" fill="white"/>
</g>
<path d="M105.394 48.591C103.595 43.7723 100.933 39.6735 97.4674 36.3523C96.5016 35.4261 95.4759 34.5556 94.3841 33.7532C89.1999 29.9349 82.8991 28 75.6614 28C72.3944 28 69.3214 28.3981 66.4527 29.182C66.4486 29.1799 66.4445 29.1758 66.4404 29.1737C62.9422 30.1268 59.7495 31.6532 56.8974 33.7532C56.1978 34.2689 55.5167 34.8238 54.7552 35.4983L54.654 35.587C54.4167 35.7954 54.1794 36.0058 53.9482 36.2265C53.9049 36.2678 53.8636 36.3131 53.8203 36.3544C53.8265 36.3606 53.8347 36.3688 53.8409 36.375C53.8842 36.4183 53.9255 36.4637 53.9709 36.5071C54.3403 36.4452 54.7098 36.3895 55.0833 36.342C56.2019 36.1976 57.3411 36.1192 58.4989 36.1192C58.8373 36.1192 59.1737 36.1275 59.5081 36.1399C59.6752 36.1461 59.8403 36.1564 60.0075 36.1646C60.1582 36.1729 60.3068 36.1811 60.4574 36.1914C60.701 36.21 60.9424 36.2286 61.1839 36.2533C61.2252 36.2575 61.2664 36.2616 61.3077 36.2657C65.2454 36.6762 69.0717 37.949 72.4666 40.018C80.0469 44.6366 85.1115 52.9374 86.2363 61.692C86.4034 62.9854 86.5025 64.2891 86.5293 65.5928C86.5396 65.9723 86.55 66.3519 86.55 66.7418V103.907C86.55 109.937 91.4349 114.826 97.4653 114.836C103.496 114.826 108.381 109.937 108.381 103.907V66.7418C108.381 66.3746 108.385 66.0095 108.395 65.6485C108.29 59.3961 107.289 53.6573 105.394 48.589V48.591Z" fill="white"/>
<path d="M61.4346 46.9822C60.931 45.8229 60.3738 44.709 59.765 43.6405C58.7929 41.9386 57.6826 40.3585 56.4464 38.896C55.7509 38.0729 55.0203 37.2828 54.2443 36.5361C54.2381 36.5299 54.2299 36.5217 54.2237 36.5155C53.2578 35.5893 52.2321 34.7188 51.1404 33.9163C45.9561 30.0981 39.6554 28.1631 32.4177 28.1631C25.1799 28.1631 18.8833 30.0981 13.6949 33.9163C12.9953 34.432 12.3143 34.9869 11.5589 35.6532L11.4598 35.7399C11.2184 35.9503 10.979 36.1627 10.7437 36.3876C9.36923 37.6913 8.1227 39.1208 7 40.6638C7.39418 40.4885 7.79249 40.3255 8.197 40.1708C9.00394 39.8614 9.83151 39.5911 10.6756 39.3642C11.9428 39.0218 13.2471 38.7763 14.5844 38.634C15.476 38.5391 16.3799 38.4896 17.2962 38.4896C19.036 38.4896 20.7366 38.6649 22.3773 38.997C22.7055 39.0631 23.0315 39.1373 23.3555 39.2157C24.0036 39.3745 24.6413 39.5561 25.2666 39.7644C26.2077 40.0738 27.122 40.4369 28.0115 40.8515C28.8989 41.2641 29.7595 41.7282 30.5891 42.2357C31.4188 42.7452 32.2154 43.3001 32.9769 43.8983C33.7385 44.4965 34.467 45.136 35.1563 45.8147C37.9115 48.5314 40.0496 51.8732 41.3436 55.6069C41.4571 55.8626 41.5644 56.1287 41.6676 56.4031C42.6499 59.0332 43.1907 62.179 43.2877 65.758C43.2815 66.1396 43.2711 66.5233 43.2711 66.907V94.1403C43.2711 94.4229 43.2856 94.7034 43.3062 94.9798V104.073C43.3062 110.102 48.1912 114.991 54.2216 115.002C60.252 114.991 65.137 110.102 65.137 104.073V94.9798C65.1577 94.7014 65.1721 94.4229 65.1721 94.1403V66.907C65.1721 66.5377 65.1577 66.1788 65.1515 65.8137C65.0442 59.4231 63.9937 52.8736 61.4346 46.9822Z" fill="url(#paint0_linear_3215_16199)"/>
<mask id="mask10_3215_16199" style="mask-type:luminance" maskUnits="userSpaceOnUse" x="7" y="28" width="59" height="88">
<path d="M61.4346 46.9822C60.931 45.8229 60.3738 44.709 59.765 43.6405C58.7929 41.9386 57.6826 40.3585 56.4464 38.896C55.7509 38.0729 55.0203 37.2828 54.2443 36.5361C54.2381 36.5299 54.2299 36.5217 54.2237 36.5155C53.2578 35.5893 52.2321 34.7188 51.1404 33.9163C45.9561 30.0981 39.6554 28.1631 32.4177 28.1631C25.1799 28.1631 18.8833 30.0981 13.6949 33.9163C12.9953 34.432 12.3143 34.9869 11.5589 35.6532L11.4598 35.7399C11.2184 35.9503 10.979 36.1627 10.7437 36.3876C9.36923 37.6913 8.1227 39.1208 7 40.6638C7.39418 40.4885 7.79249 40.3255 8.197 40.1708C9.00394 39.8614 9.83151 39.5911 10.6756 39.3642C11.9428 39.0218 13.2471 38.7763 14.5844 38.634C15.476 38.5391 16.3799 38.4896 17.2962 38.4896C19.036 38.4896 20.7366 38.6649 22.3773 38.997C22.7055 39.0631 23.0315 39.1373 23.3555 39.2157C24.0036 39.3745 24.6413 39.5561 25.2666 39.7644C26.2077 40.0738 27.122 40.4369 28.0115 40.8515C28.8989 41.2641 29.7595 41.7282 30.5891 42.2357C31.4188 42.7452 32.2154 43.3001 32.9769 43.8983C33.7385 44.4965 34.467 45.136 35.1563 45.8147C37.9115 48.5314 40.0496 51.8732 41.3436 55.6069C41.4571 55.8626 41.5644 56.1287 41.6676 56.4031C42.6499 59.0332 43.1907 62.179 43.2877 65.758C43.2815 66.1396 43.2711 66.5233 43.2711 66.907V94.1403C43.2711 94.4229 43.2856 94.7034 43.3062 94.9798V104.073C43.3062 110.102 48.1912 114.991 54.2216 115.002C60.252 114.991 65.137 110.102 65.137 104.073V94.9798C65.1577 94.7014 65.1721 94.4229 65.1721 94.1403V66.907C65.1721 66.5377 65.1577 66.1788 65.1515 65.8137C65.0442 59.4231 63.9937 52.8736 61.4346 46.9822Z" fill="white"/>
</mask>
<g mask="url(#mask10_3215_16199)">
<path d="M38.2231 28.165L7 38.8648V28.165H38.2231Z" fill="white"/>
<path d="M39.8886 28.165L7 39.4342V38.8648L38.2231 28.165H39.8886Z" fill="white"/>
<path d="M41.552 28.165L7 40.0056V39.4342L39.8886 28.165H41.552Z" fill="white"/>
<path d="M43.2154 28.165L7 40.5749V40.0056L41.552 28.165H43.2154Z" fill="white"/>
<path d="M44.8809 28.165L7 41.1463V40.5749L43.2154 28.165H44.8809Z" fill="white"/>
<path d="M46.5443 28.165L7 41.7156V41.1463L44.8809 28.165H46.5443Z" fill="white"/>
<path d="M48.2077 28.165L7 42.287V41.7156L46.5443 28.165H48.2077Z" fill="white"/>
<path d="M49.8732 28.165L7 42.8564V42.287L48.2077 28.165H49.8732Z" fill="white"/>
<path d="M51.5366 28.165L7 43.4257V42.8564L49.8732 28.165H51.5366Z" fill="white"/>
<path d="M53.2 28.165L7 43.9971V43.4257L51.5366 28.165H53.2Z" fill="white"/>
<path d="M54.8655 28.165L7 44.5664V43.9971L53.2 28.165H54.8655Z" fill="white"/>
<path d="M56.5289 28.165L7 45.1378V44.5664L54.8655 28.165H56.5289Z" fill="white"/>
<path d="M58.1924 28.165L7 45.7072V45.1378L56.5289 28.165H58.1924Z" fill="white"/>
<path d="M59.8578 28.165L7 46.2786V45.7072L58.1924 28.165H59.8578Z" fill="white"/>
<path d="M61.5213 28.165L7 46.8479V46.2786L59.8578 28.165H61.5213Z" fill="white"/>
<path d="M63.1847 28.165L7 47.4193V46.8479L61.5213 28.165H63.1847Z" fill="white"/>
<path d="M64.8502 28.165L7 47.9887V47.4193L63.1847 28.165H64.8502Z" fill="white"/>
<path d="M65.1721 28.625L7 48.5601V47.9887L64.8502 28.165H65.1721V28.625Z" fill="white"/>
<path d="M65.1721 29.1944L7 49.1295V48.5601L65.1721 28.625V29.1944Z" fill="white"/>
<path d="M65.1721 29.7657L7 49.7007V49.1293L65.1721 29.1943V29.7657Z" fill="white"/>
<path d="M65.1721 30.3349L7 50.27V49.7006L65.1721 29.7656V30.3349Z" fill="white"/>
<path d="M65.1721 30.9043L7 50.8394V50.2701L65.1721 30.335V30.9043Z" fill="white"/>
<path d="M65.1721 31.4757L7 51.4108V50.8394L65.1721 30.9043V31.4757Z" fill="white"/>
<path d="M65.1721 32.045L7 51.98V51.4107L65.1721 31.4756V32.045Z" fill="white"/>
<path d="M65.1721 32.6163L7 52.5513V51.9799L65.1721 32.0449V32.6163Z" fill="white"/>
<path d="M65.1721 33.1855L7 53.1206V52.5512L65.1721 32.6162V33.1855Z" fill="white"/>
<path d="M65.1721 33.7569L7 53.692V53.1206L65.1721 33.1855V33.7569Z" fill="white"/>
<path d="M65.1721 34.3261L7 54.2612V53.6918L65.1721 33.7568V34.3261Z" fill="white"/>
<path d="M65.1721 34.8976L7 54.8327V54.2613L65.1721 34.3262V34.8976Z" fill="white"/>
<path d="M65.1721 35.4677L7 55.4028V54.8335L65.1721 34.8984V35.4677Z" fill="white"/>
<path d="M65.1721 36.0392L7 55.9743V55.4029L65.1721 35.4678V36.0392Z" fill="white"/>
<path d="M65.1721 36.6084L7 56.5435V55.9742L65.1721 36.0391V36.6084Z" fill="white"/>
<path d="M65.1721 37.1778L7 57.1128V56.5435L65.1721 36.6084V37.1778Z" fill="white"/>
<path d="M65.1721 37.7491L7 57.6841V57.1127L65.1721 37.1777V37.7491Z" fill="white"/>
<path d="M65.1721 38.3183L7 58.2534V57.684L65.1721 37.749V38.3183Z" fill="white"/>
<path d="M65.1721 38.8898L7 58.8249V58.2535L65.1721 38.3184V38.8898Z" fill="white"/>
<path d="M65.1721 39.459L7 59.3941V58.8247L65.1721 38.8896V39.459Z" fill="white"/>
<path d="M65.1721 40.0304L7 59.9655V59.3941L65.1721 39.459V40.0304Z" fill="white"/>
<path d="M65.1721 40.5997L7 60.5347V59.9654L65.1721 40.0303V40.5997Z" fill="white"/>
<path d="M65.1721 41.171L7 61.106V60.5346L65.1721 40.5996V41.171Z" fill="white"/>
<path d="M65.1721 41.7403L7 61.6754V61.106L65.1721 41.1709V41.7403Z" fill="white"/>
<path d="M65.1721 42.3116L7 62.2466V61.6753L65.1721 41.7402V42.3116Z" fill="white"/>
<path d="M65.1721 42.8808L7 62.8159V62.2465L65.1721 42.3115V42.8808Z" fill="white"/>
<path d="M65.1721 43.4523L7 63.3874V62.816L65.1721 42.8809V43.4523Z" fill="white"/>
<path d="M65.1721 44.0215L7 63.9566V63.3872L65.1721 43.4521V44.0215Z" fill="white"/>
<path d="M65.1721 44.5909L7 64.5259V63.9566L65.1721 44.0215V44.5909Z" fill="white"/>
<path d="M65.1721 45.1622L7 65.0972V64.5258L65.1721 44.5908V45.1622Z" fill="white"/>
<path d="M65.1721 45.7314L7 65.6665V65.0971L65.1721 45.1621V45.7314Z" fill="white"/>
<path d="M65.1721 46.3028L7 66.2379V65.6665L65.1721 45.7314V46.3028Z" fill="white"/>
<path d="M65.1721 46.873L7 66.8081V66.2387L65.1721 46.3037V46.873Z" fill="white"/>
<path d="M65.1721 47.4444L7 67.3795V66.8081L65.1721 46.873V47.4444Z" fill="white"/>
<path d="M65.1721 48.0136L7 67.9487V67.3793L65.1721 47.4443V48.0136Z" fill="white"/>
<path d="M65.1721 48.5851L7 68.5202V67.9488L65.1721 48.0137V48.5851Z" fill="white"/>
<path d="M65.1721 49.1543L7 69.0894V68.5201L65.1721 48.585V49.1543Z" fill="white"/>
<path d="M65.1721 49.7257L7 69.6608V69.0894L65.1721 49.1543V49.7257Z" fill="white"/>
<path d="M65.1721 50.295L7 70.23V69.6607L65.1721 49.7256V50.295Z" fill="white"/>
<path d="M65.1721 50.8663L7 70.8013V70.2299L65.1721 50.2949V50.8663Z" fill="white"/>
<path d="M65.1721 51.4355L7.00619 71.3685L7 71.3479V70.8012L65.1721 50.8662V51.4355Z" fill="white"/>
<path d="M65.1718 52.0048L7.18128 71.878L7.00586 71.3685L65.1718 51.4355V52.0048Z" fill="white"/>
<path d="M65.1721 52.5763L7.35706 72.3897L7.18164 71.8781L65.1721 52.0049V52.5763Z" fill="white"/>
<path d="M65.1725 53.1456L7.53284 72.8991L7.35742 72.3896L65.1725 52.5762V53.1456Z" fill="white"/>
<path d="M65.1729 53.7169L7.70656 73.4085L7.5332 72.899L65.1729 53.1455V53.7169Z" fill="white"/>
<path d="M65.1714 54.443L7.92797 74.0603L7.70508 73.4085L65.1714 53.7168V54.443Z" fill="white"/>
<path d="M65.1711 55.1695L8.15269 74.7106L7.92773 74.0608L65.1711 54.4434V55.1695Z" fill="white"/>
<path d="M65.1728 55.8971L8.37719 75.3597L8.1543 74.71L65.1728 55.1689V55.8971Z" fill="white"/>
<path d="M65.1725 56.6236L8.59984 76.01L8.37695 75.3602L65.1725 55.8975V56.6236Z" fill="white"/>
<path d="M65.1723 57.3501L8.8225 76.6601L8.59961 76.0103L65.1723 56.624V57.3501Z" fill="white"/>
<path d="M65.1659 58.0821C46.4782 64.483 27.8834 71.3645 9.04516 77.3096L8.82227 76.6598C27.6048 70.2238 46.3874 63.7878 65.1679 57.3477C65.1679 57.5911 65.1679 57.8345 65.1659 58.0821Z" fill="white"/>
<path d="M65.1718 58.8044L9.26781 77.9618L9.04492 77.312L65.1718 58.0762V58.8044Z" fill="white"/>
<path d="M65.1716 59.5298L9.49047 78.6108L9.26758 77.961L65.1716 58.8037V59.5298Z" fill="white"/>
<path d="M65.1713 60.2564L9.71312 79.2612L9.49023 78.6114L65.1713 59.5303V60.2564Z" fill="white"/>
<path d="M65.1731 60.9841L9.93771 79.9125L9.71484 79.2606L65.1731 60.2559V60.9841Z" fill="white"/>
<path d="M65.1728 61.7105L10.1604 80.5626L9.9375 79.9128L65.1728 60.9844V61.7105Z" fill="white"/>
<path d="M65.1727 62.437L10.3831 81.2128L10.1602 80.563L65.1727 61.7109V62.437Z" fill="white"/>
<path d="M65.1724 63.1626L10.6057 81.862L10.3828 81.2122L65.1724 62.4365V63.1626Z" fill="white"/>
<path d="M65.1721 63.8913L10.8283 82.5124L10.6055 81.8626L65.1721 63.1631V63.8913Z" fill="white"/>
<path d="M65.1719 64.6167L11.0531 83.1635L10.8281 82.5116L65.1719 63.8906V64.6167Z" fill="white"/>
<path d="M65.1716 65.3434L11.2756 83.8138L11.0527 83.164L65.1716 64.6172V65.3434Z" fill="white"/>
<path d="M65.1713 66.071L11.4983 84.4631L11.2754 83.8133L65.1713 65.3428V66.071Z" fill="white"/>
<path d="M65.173 66.7974L11.7229 85.1132L11.5 84.4634L65.173 66.0713V66.7974Z" fill="white"/>
<path d="M65.1729 67.524L11.9456 85.7654L11.7227 85.1137L65.1729 66.7979V67.524Z" fill="white"/>
<path d="M65.1726 68.2495L12.1682 86.4147L11.9453 85.7649L65.1726 67.5234V68.2495Z" fill="white"/>
<path d="M65.1723 68.9782L12.3908 87.065L12.168 86.4152L65.1723 68.25V68.9782Z" fill="white"/>
<path d="M65.1721 69.7036L12.6135 87.7141L12.3906 87.0643L65.1721 68.9775V69.7036Z" fill="white"/>
<path d="M65.1719 70.4303L12.8362 88.3644L12.6133 87.7146L65.1719 69.7041V70.4303Z" fill="white"/>
<path d="M65.1716 71.1558L13.0588 89.0157L12.8359 88.3639L65.1716 70.4297V71.1558Z" fill="white"/>
<path d="M65.1714 71.8845L13.2815 89.666L13.0586 89.0162L65.1714 71.1562V71.8845Z" fill="white"/>
<path d="M65.1712 72.6109L13.5041 90.3161L13.2812 89.6663L65.1712 71.8848V72.6109Z" fill="white"/>
<path d="M65.173 73.3365L13.7288 90.9653L13.5059 90.3156L65.173 72.6104V73.3365Z" fill="white"/>
<path d="M65.1727 74.065L13.9535 91.6175L13.7285 90.9657L65.1727 73.3369V74.065Z" fill="white"/>
<path d="M65.1723 74.7906L14.176 92.2668L13.9531 91.617L65.1723 74.0645V74.7906Z" fill="white"/>
<path d="M65.1721 75.5171L14.3987 92.9169L14.1758 92.2672L65.1721 74.791V75.5171Z" fill="white"/>
<path d="M65.1719 76.2428L14.6213 93.5663L14.3984 92.9165L65.1719 75.5166V76.2428Z" fill="white"/>
<path d="M65.1716 76.9714L14.844 94.2165L14.6211 93.5667L65.1716 76.2432V76.9714Z" fill="white"/>
<path d="M65.1714 77.6968L15.0666 94.8677L14.8438 94.2158L65.1714 76.9707V77.6968Z" fill="white"/>
<path d="M65.1712 78.4234L15.2893 95.518L15.0664 94.8682L65.1712 77.6973V78.4234Z" fill="white"/>
<path d="M65.1729 79.1519L15.5139 96.1681L15.291 95.5183L65.1729 78.4238V79.1519Z" fill="white"/>
<path d="M65.1726 79.8775L15.7365 96.8174L15.5137 96.1676L65.1726 79.1514V79.8775Z" fill="white"/>
<path d="M65.1724 80.604L15.9592 97.4696L15.7363 96.8177L65.1724 79.8779V80.604Z" fill="white"/>
<path d="M65.1722 81.3296L16.1819 98.1188L15.959 97.4691L65.1722 80.6035V81.3296Z" fill="white"/>
<path d="M65.1719 82.0583L16.4045 98.7692L16.1816 98.1194L65.1719 81.3301V82.0583Z" fill="white"/>
<path d="M65.1717 82.7837L16.6272 99.4182L16.4043 98.7684L65.1717 82.0576V82.7837Z" fill="white"/>
<path d="M65.1715 83.5103L16.852 100.069L16.627 99.4188L65.1715 82.7842V83.5103Z" fill="white"/>
<path d="M65.1731 84.2368L17.0764 100.721L16.8535 100.069L65.1731 83.5107V84.2368Z" fill="white"/>
<path d="M65.1729 84.9644L17.299 101.37L17.0762 100.72L65.1729 84.2363V84.9644Z" fill="white"/>
<path d="M65.1726 85.6909L17.5217 102.02L17.2988 101.37L65.1726 84.9648V85.6909Z" fill="white"/>
<path d="M65.1724 86.4165L17.7444 102.67L17.5215 102.02L65.1724 85.6904V86.4165Z" fill="white"/>
<path d="M65.1721 87.1452L17.967 103.322L17.7441 102.67L65.1721 86.417V87.1452Z" fill="white"/>
<path d="M65.1719 87.8706L18.1897 103.971L17.9668 103.321L65.1719 87.1445V87.8706Z" fill="white"/>
<path d="M65.1718 88.5973L18.4124 104.621L18.1895 103.971L65.1718 87.8711V88.5973Z" fill="white"/>
<path d="M65.1715 89.3238L18.635 105.271L18.4121 104.622L65.1715 88.5977V89.3238Z" fill="white"/>
<path d="M65.1712 90.0514L18.8576 105.921L18.6348 105.271L65.1712 89.3232V90.0514Z" fill="white"/>
<path d="M65.1729 90.7779L19.0823 106.573L18.8594 105.921L65.1729 90.0518V90.7779Z" fill="white"/>
<path d="M65.1727 91.5034L19.3049 107.222L19.082 106.572L65.1727 90.7773V91.5034Z" fill="white"/>
<path d="M65.1725 92.232L19.5276 107.872L19.3047 107.223L65.1725 91.5039V92.232Z" fill="white"/>
<path d="M65.1722 92.9575L19.7523 108.522L19.5273 107.872L65.1722 92.2314V92.9575Z" fill="white"/>
<path d="M65.172 93.6841L19.9749 109.174L19.752 108.522L65.172 92.958V93.6841Z" fill="white"/>
<path d="M65.1717 94.4107L20.1975 109.824L19.9746 109.174L65.1717 93.6846V94.4107Z" fill="white"/>
<path d="M65.1714 95.1384L20.4201 110.473L20.1973 109.824L65.1714 94.4102V95.1384Z" fill="white"/>
<path d="M65.1712 95.8648L20.6428 111.123L20.4199 110.474L65.1712 95.1387V95.8648Z" fill="white"/>
<path d="M65.1729 96.5904L20.8674 111.773L20.6445 111.123L65.1729 95.8643V96.5904Z" fill="white"/>
<path d="M65.1727 97.3169L21.0901 112.425L20.8672 111.773L65.1727 96.5908V97.3169Z" fill="white"/>
<path d="M65.1724 98.0445L21.3127 113.074L21.0898 112.425L65.1724 97.3164V98.0445Z" fill="white"/>
<path d="M21.9729 115.001L21.3125 113.075L65.1722 98.0449V115.001H21.9729Z" fill="white"/>
</g>
<path d="M126.333 27.7676H112.912C110.565 27.7676 108.656 25.8595 108.656 23.5141V10.867C108.656 4.86618 103.79 0 97.7845 0C91.7789 0 86.9124 4.86412 86.9124 10.867V14.1035C86.9124 14.1035 86.9124 14.1221 86.9124 14.1303V17.3318C86.9124 17.3978 86.9124 17.4639 86.9124 17.5319C86.9104 17.8929 86.8918 18.1797 86.9124 18.4128C86.9124 19.0151 86.9124 19.6174 86.9124 20.2198C86.9062 21.2594 86.7493 21.6328 87.9401 21.936C98.9463 24.7374 107.053 29.0218 112.125 42.6117C112.569 43.7998 112.864 44.7322 113.322 47.0096C113.444 47.6181 113.516 48.2988 113.589 48.862C113.642 49.289 114.008 49.6067 114.437 49.6067H123.728C124.234 49.6067 124.729 49.5695 125.216 49.4994H126.333C132.336 49.4994 137.205 44.6353 137.205 38.6325C137.205 32.6297 132.338 27.7656 126.333 27.7656V27.7676Z" fill="white"/>
</g>
</g>
<defs>
<linearGradient id="paint0_linear_3215_16199" x1="33.7818" y1="30.2321" x2="42.186" y2="110.429" gradientUnits="userSpaceOnUse">
<stop stop-color="#ACDBCA"/>
<stop offset="0.44" stop-color="#6FC5A6"/>
<stop offset="1" stop-color="#51917B"/>
</linearGradient>
<clipPath id="clip0_3215_16199">
<rect width="138" height="115" fill="white"/>
</clipPath>
</defs>
</svg>
